<svg width="512" height="512" viewBox="0 0 100 100" fill="none" xmlns="http://www.w3.org/2000/svg">
  <defs>
    <filter id="shadow-final" x="-50%" y="-50%" width="200%" height="200%">
      <feDropShadow dx="0" dy="2" stdDeviation="2" flood-color="rgba(0,0,0,0.25)"/>
    </filter>
  </defs>
  <rect width="100" height="100" rx="22" fill="#3B82F6"/>
  
  <!-- Grid Lines -->
  <line x1="50" y1="0" x2="50" y2="100" stroke="white" stroke-width="2" stroke-dasharray="4 4" stroke-opacity="0.5"/>
  <line x1="0" y1="50" x2="100" y2="50" stroke="white" stroke-width="2" stroke-dasharray="4 4" stroke-opacity="0.5"/>
  
  <!-- Face -->
  <g fill="#FFD600">
    <circle cx="35" cy="38" r="7" />
    <circle cx="65" cy="38" r="7" />
  </g>
  <path d="M30 62 C30 62 40 72 50 72 C60 72 70 62 70 62" stroke="#FFD600" stroke-width="8" stroke-linecap="round" stroke-linejoin="round"/>
  
  <!-- Scissors (Scale 1.2, Positioned at Bottom Right Quadrant Center) -->
  <g transform="translate(75, 75) rotate(-45) scale(1.2)" filter="url(#shadow-final)">
    <!-- Blade 1 -->
    <g transform="rotate(-15)">
      <path d="M -2 0 L -2 -22 L 3 -22 L 3 0 Z" fill="#CBD5E1"/> 
      <path d="M -2 -22 L 0.5 -28 L 3 -22 Z" fill="#CBD5E1"/>
      <path d="M 0.5 0 L 0.5 8 A 5 6 0 1 1 0.5 -4 Z" transform="translate(0, 6) rotate(180)" fill="white"/>
      <circle cx="0.5" cy="11" r="3" fill="#3B82F6"/> 
    </g>
    <!-- Blade 2 -->
    <g transform="rotate(15)">
      <path d="M -3 0 L -3 -22 L 2 -22 L 2 0 Z" fill="#94A3B8"/>
      <path d="M -3 -22 L -0.5 -28 L 2 -22 Z" fill="#94A3B8"/>
      <path d="M -0.5 0 L -0.5 8 A 5 6 0 1 0 -0.5 -4 Z" transform="translate(0, 6) rotate(180)" fill="white"/>
      <circle cx="-0.5" cy="11" r="3" fill="#3B82F6"/>
    </g>
    <!-- Pivot -->
    <circle cx="0" cy="-2" r="1.5" fill="#475569"/>
    <circle cx="0" cy="-2" r="0.5" fill="#E2E8F0"/>
  </g>
</svg>
        